<svg id="Layer_1" data-name="Layer 1" xmlns="http://www.w3.org/2000/svg" viewBox="0 0 48.9 48.89"><defs><style>.cls-1{fill:#7dba32;}</style></defs><path class="cls-1" d="M24.45,0A24.45,24.45,0,1,0,48.89,24.44,24.44,24.44,0,0,0,24.45,0ZM37.83,26a2.21,2.21,0,0,1-1.57.65H26.68v9.57a2.23,2.23,0,0,1-2.23,2.24,2.27,2.27,0,0,1-2.24-2.24V26.68H12.64a2.24,2.24,0,0,1-2.24-2.24,2.22,2.22,0,0,1,2.24-2.23h9.57V12.64A2.24,2.24,0,0,1,26,11.05a2.27,2.27,0,0,1,.65,1.59v9.57h9.58A2.23,2.23,0,0,1,37.83,26Z"/></svg>